<?xml version="1.0" encoding="UTF-8"?> <svg xmlns="http://www.w3.org/2000/svg" viewBox="0 0 192 192"><defs><style>.cls-1{fill:#ffdece;}.cls-2{fill:#9de1d6;}.cls-3{fill:#037e6c;}</style></defs><title>6_green_li</title><g id="Person"><path class="cls-1" d="M163.86,28.69a95.5,95.5,0,0,1,28,67.39v95.55H96.81a94.55,94.55,0,0,1-67-28.16A95.3,95.3,0,0,1,96.81.78,94.49,94.49,0,0,1,163.86,28.69Z"></path><path class="cls-2" d="M163.86,28.69a95.5,95.5,0,0,1,28,67.39v95.55H96.81a94.55,94.55,0,0,1-67-28.16A95.3,95.3,0,0,1,96.81.78,94.49,94.49,0,0,1,163.86,28.69Z"></path><path class="cls-3" d="M146.5,92.48a34.19,34.19,0,0,0-34.17-34.21H89.15a34.21,34.21,0,0,0-34.2,33.54C54.58,111,70.64,126.7,89.83,126.7h17.24l21.1,18.4a1.46,1.46,0,0,0,2.4-1.35l-3.5-20.4A34.24,34.24,0,0,0,146.5,92.48ZM122.7,82l-20.89,25.75a4.5,4.5,0,0,1-6.32.67L78,94.34a4.5,4.5,0,0,1,5.65-7L86,89.25l11.61,9.35,13.87-17.1,4.2-5.17a4.5,4.5,0,0,1,7,5.67Z"></path></g></svg> 