<?xml version="1.0" encoding="utf-8"?>
<!-- Generator: Adobe Illustrator 25.4.1, SVG Export Plug-In . SVG Version: 6.00 Build 0)  -->
<svg version="1.1" id="Layer_1" xmlns="http://www.w3.org/2000/svg" xmlns:xlink="http://www.w3.org/1999/xlink" x="0px" y="0px"
	 viewBox="0 0 593 495" style="enable-background:new 0 0 593 495;" xml:space="preserve">
<style type="text/css">
	.st0{fill:#353A3A;}
	.st1{fill:#FFE0D0;}
	.st2{fill:#FFA17D;}
	.st3{fill:#FFC8B3;}
	.st4{fill:#037E6C;}
</style>
<path class="st0" d="M496.9,358.1C476.1,318.2,520,222.3,455.3,127C435.7,91.9,392.5,51.5,343,38.2c-49.5-13.3-102.6,0.5-111.8,26
	c-30.3,14.3-35.8,19-54.8,61.1c-19,42.1,14.4,97,22.7,116.9s28.8,34.5,14.4,71.6c-14.5,37.2-35.2,120.7-16.8,144.9
	c0,0,173.2,32.3,211.3,33.9s40.4,0.2,79.7-20.3S517.6,398,496.9,358.1z"/>
<path class="st1" d="M382.5,254.2c-0.2,0.6-18,82.1,5.8,128.6c2.1,4.2,5,9.3,8.4,15.1c0.1,0.1,0.2,0.2,0.3,0.3
	c24,28.1,3.5,70.1-23.1,96.8H190.3c-4.5-9.9-7.8-19.7-9.4-28.5c-4.2-22.6-13.6-39.8,14.3-55.2c0,0,0,0,0,0
	c14.9-3.7,29.9-8.2,33.6-13.2c4.2-5.7,11.9-29.2,9.1-45.6c-1.5-8.9-6.1-15.8-16-16.4c-3.4-0.2-6.8-1.2-9.8-2.9
	c-1.1-0.7-2.2-1.4-3.2-2.2c-16.5-13.4-19.7-50.2-23.2-81.2c-1.6-14-2.8-24.2,0.5-36.9c0.7-2.8,1.6-5.5,2.6-8.2
	c3.1-8.9,3.8-18.4,1.9-27.6c-1.6-8.2-4.1-19.4-0.2-29.2c4-9.8,13.5-31.8,24.5-45.7c11-13.9,27.4-31.4,51.3-34.2
	c0,0,28.1-3.6,34.4,15c15.3,45.5,22.2,26.8,27.9,61.6c2.5,14.8,16.5,8.2,21.1,29.9c0.3,1.3,0.6,2.6,1,3.9c5.7,17.9,21,19.4,27.9,19
	c6.3-0.4,12.3-8.3,19.6-12.9c1.2-0.8,2.5-1.5,3.8-2.1c9.1-3.8,16.5,15.4,22.2,36C410.3,247.8,382.5,254.2,382.5,254.2z"/>
<path class="st2" d="M176.8,415.6l-0.7-0.1l0.6-0.1L176.8,415.6z"/>
<path class="st0" d="M296,174.2c0.1,0.6,0,1.1-0.3,1.6c-0.3,0.5-0.7,0.9-1.3,1.1c-3.8,1.4-7.6,2.6-11.5,3.6
	c-6.2,1.3-9.4,1.9-19.3,1.1c-3.5-0.3-6.4-0.6-8.9-0.8c-0.5,0-1.1-0.3-1.5-0.6c-0.4-0.4-0.7-0.8-0.8-1.4c-0.1-0.5,0-1.1,0.3-1.5
	c0.3-0.5,0.7-0.9,1.2-1.1c5.1-2.2,10.7-3.3,16.3-3.3c9.6,0,16.6-0.2,23-0.7h0.2c0.6,0,1.2,0.1,1.6,0.5
	C295.6,173.2,295.9,173.7,296,174.2z M191.1,194.5c3.4,1.1,7,0.9,10.3-0.6c0.8-0.6,5.6-7.7,5.6-7.7c-3.5,1.6-7.2,2.8-10.9,3.6
	C191.3,190.6,186.6,192.9,191.1,194.5z M303.2,147.9c-8.7-6.6-24.5-8.9-38.6-8.8c-14.1,0.1-23.8,3-22.3,7.5
	c2.3,7.1,7.9,5.5,16.5,3.1c6.6-1.9,15.1-1,24.6,1.3c9.6,2.3,13.6,3.3,19,4.6C309,157.2,312.2,154.8,303.2,147.9L303.2,147.9z
	 M196.6,149.8c-3.2,0.2-6.3,1.3-8.8,3.3c0,0-1.8,0.3-1.8,3.2c0,2.9,0.7,7.1,3,5.8c2.1-1.1,12.4-2.5,14.7-4.6
	C206.2,155.4,201.5,149.8,196.6,149.8z"/>
<path class="st3" d="M403.7,232.2c-7.1,5.8-13.2,4.7-15.9,4c-2.7-0.7,0.5,2.7,5.1-2c4.6-4.7,11.2-12.1,10.5-20
	c-0.6-7.9-0.6-19.2-8.3-18.8c0,0-21.5,4-10.4,5.8c9.2,1.5,17.5,9.9,13.8,20.1c-3.7,10.2-9.8,11-18.1,8.8
	c-8.4-2.2-21.8,21.1-13.7,21.9c8.1,0.8,16.1,1.9,16.1,1.9c-0.5,1.5-8.3,45.9-8.3,63.8c-32.5-13.8-67.8-70-48.5-196.7
	c8-11.1,22.9,71.4,24.7,52.7c5.7,17.9,21.3,23.8,28.3,23.4c6.3-0.4,12.3-8.3,19.6-12.9c0.4,0.1,5.3-2.5,5.7-2.4
	c5.5,2.3,9.5,12,9.9,20.4C414.7,210.6,410.8,226.4,403.7,232.2z M204.6,178.9c0.3,11.8,7.5-6.2,7.5-6.2s2.9-5.8-1.2-9.9
	c-4.1-4.1-16.9-3.7-19.2-0.9c-2.3,2.8-0.1,6.4-0.1,6.4C196.6,173.8,204.5,174.4,204.6,178.9z M198.1,238.6c2.3,2.1,13.7,3.1,28.6,0
	c8-1.3-6.9-10.2-24-11.2C185.5,226.3,195.8,236.5,198.1,238.6z M251.1,273.7c-11.4,0-18.7-9.7-34.3-13.6c-15.6-3.9-24.8,1-23.8,9.9
	c0,9.9,0,10.8,12.4,12.8S236.6,283.6,251.1,273.7z M242.1,333.4c-21.6,2.1-30-1.5-30-1.5c2.2,1.4,5.2,2.4,10.2,3.2
	c5,0.7,5.6,0.4,11.6,5.7c6.1,5.3,12,31.8,3.4,51c-10.7,24.2,54.4,41.1,55.3,31c0.8-10.1,0.4-38.3-3.7-53.7
	c-4.1-15.4-4.2-31.1,4.2-40.6C301.7,319,263.8,331.2,242.1,333.4z"/>
<path class="st4" d="M213.8,461.6c2,10.8,3.9,22.3,6.2,33.4H36.2c19.8-29.4,46.3-55.5,74.9-64.2c41-12.5,69.4-17.4,79.8-19
	c2.5-0.4,4-0.6,4.3-0.6h0.1C205,419.2,209.6,439,213.8,461.6z"/>
<path class="st4" d="M547.4,495H351.6c3.3-2.9,6.6-5.9,9.8-9c27.5-26.7,46.7-57.8,35.3-88.1c0.1,0.1,0.2,0.2,0.3,0.3
	c23.5,25.6,53.1,40.3,87.2,57.6c13.5,6.9,27.8,14.2,42.6,22.8C534.4,483.1,541.3,488.7,547.4,495z"/>
<path class="st0" d="M341.9,85.9c3.7,10.5,6.8,21.2,9.1,32.1c2.3,10.9,3.7,22,4.2,33.1c0.6,11,0.2,22-0.3,32.8
	c-0.5,10.7-1.1,21.2-0.6,31.3c0.4,10,2.5,20,6.1,29.4c3.9,9.5,9.1,18.4,15.4,26.5c6.5,8.4,13.7,16.2,21.4,23.4
	c7.7,7.4,16,14.3,24.4,21.2l-14.9,2.9c-8.8-6.5-17.6-13.1-26-20.4c-8.5-7.2-16.4-15-23.6-23.4c-7.4-8.5-13.6-18.1-18.4-28.3
	c-4.6-10.4-7.5-21.5-8.5-32.8c-1.1-11.2-1-22-1.1-32.7c-0.1-10.6-0.3-21-1.3-31.3c-2.1-20.5-7.2-40.5-15.2-59.5L341.9,85.9z"/>
</svg>
