<?xml version="1.0" encoding="UTF-8"?> <svg xmlns="http://www.w3.org/2000/svg" viewBox="0 0 192 192"><defs><style>.cls-1{fill:#ffdece;}.cls-2{fill:#ff9f7c;}</style></defs><title>2_orange_re</title><g id="Person"><path class="cls-1" d="M95.32.93a95.38,95.38,0,0,1,67,27.91,95.65,95.65,0,0,1,0,134.77,94.55,94.55,0,0,1-67,28.16H.25V96.23a95.5,95.5,0,0,1,28-67.39A94.49,94.49,0,0,1,95.32.93Z"></path><path class="cls-1" d="M95.32.93a95.38,95.38,0,0,1,67,27.91,95.65,95.65,0,0,1,0,134.77,94.55,94.55,0,0,1-67,28.16H.25V96.23a95.5,95.5,0,0,1,28-67.39A94.49,94.49,0,0,1,95.32.93Z"></path><path class="cls-2" d="M139.26,91.14a34.19,34.19,0,0,0-34.17-34.21H81.9A34.2,34.2,0,0,0,47.7,90.47c-.37,19.18,15.7,34.89,34.89,34.89H99.83l21.1,18.4a1.46,1.46,0,0,0,2.4-1.35l-3.5-20.4A34.24,34.24,0,0,0,139.26,91.14Zm-22.91-9.76c0,13.74-3.62,20.86-18.17,21.73V114a9.67,9.67,0,0,1-4.56.81,10.23,10.23,0,0,1-4.56-.81V103.11c-15-.87-18.23-7.93-18.23-20.92V70.7a10.54,10.54,0,0,1,4.62-.81,10,10,0,0,1,4.62.81V81.32c0,9.12,1.56,12.86,9,13.61V70.7a10.23,10.23,0,0,1,4.56-.81,9.67,9.67,0,0,1,4.56.81V94.93c7.43-.81,8.93-4.87,8.93-13.3V70.7a10.54,10.54,0,0,1,4.62-.81,10,10,0,0,1,4.62.81Z"></path></g></svg> 