<?xml version="1.0" encoding="UTF-8"?> <svg xmlns="http://www.w3.org/2000/svg" viewBox="0 0 192 192"><defs><style>.cls-1{fill:#26bba4;}.cls-2{fill:#9de1d6;}.cls-3{fill:#037e6c;}</style></defs><title>1_green_li</title><g id="Person"><path class="cls-1" d="M163.86,28.79a95.5,95.5,0,0,1,28,67.39v95.55H96.81a94.55,94.55,0,0,1-67-28.16A95.3,95.3,0,0,1,96.81.88,94.49,94.49,0,0,1,163.86,28.79Z"></path><path class="cls-2" d="M163.86,28.79a95.5,95.5,0,0,1,28,67.39v95.55H96.81a94.55,94.55,0,0,1-67-28.16A95.3,95.3,0,0,1,96.81.88,94.49,94.49,0,0,1,163.86,28.79Z"></path><path class="cls-3" d="M98.29,95.59a11.9,11.9,0,0,1,9.63-4.93,12.43,12.43,0,0,1,3.64.59l21.37,6.93V68.93a6.31,6.31,0,0,0-6.34-6.34H64.81a6.31,6.31,0,0,0-6.34,6.34v45.68a6.31,6.31,0,0,0,6.34,6.34h36.54l-4.81-14.68A11.56,11.56,0,0,1,98.29,95.59Z"></path><path class="cls-3" d="M155,138.56,138.56,122l5.75-5.75a4,4,0,0,0-1.53-6.57L109.21,98.76a4,4,0,0,0-5,5l10.92,33.58a4,4,0,0,0,6.57,1.53l5.75-5.75L144,149.71a3.05,3.05,0,0,0,4.46,0l6.69-6.69A3.15,3.15,0,0,0,155,138.56Z"></path></g></svg> 